<?xml version="1.0" encoding="utf-8"?>
<!-- Generator: Adobe Illustrator 24.0.1, SVG Export Plug-In . SVG Version: 6.00 Build 0)  -->
<svg version="1.1" id="Layer_1" xmlns="http://www.w3.org/2000/svg" xmlns:xlink="http://www.w3.org/1999/xlink" x="0px" y="0px"
	 viewBox="0 0 370 110" style="enable-background:new 0 0 370 110;" xml:space="preserve">
<style type="text/css">
	.st0{fill-rule:evenodd;clip-rule:evenodd;fill:#271933;}
	.st1{fill-rule:evenodd;clip-rule:evenodd;fill:url(#SVG-Back_to_top_2_);}
	.st2{opacity:0.3;enable-background:new    ;}
	.st3{fill:url(#glow_gradient_1_);}
</style>
<path id="SVG-Back_to_top" class="st0" d="M0,83.4L0,83.4C91.3,83.2,105.3,0.2,186.9,0.2c80.9,0,100.1,82,183.1,83.1v0.1L0,83.4
	L0,83.4z"/>
<linearGradient id="SVG-Back_to_top_2_" gradientUnits="userSpaceOnUse" x1="990.5" y1="-4225.27" x2="990.5" y2="-4159.0898" gradientTransform="matrix(1 0 0 -1 -805.5 -4142.0903)">
	<stop  offset="0" style="stop-color:#271933"/>
	<stop  offset="1" style="stop-color:#3D274D"/>
</linearGradient>
<path id="SVG-Back_to_top_1_" class="st1" d="M30,83.2L30,83.2C121.3,83.1,113.9,17,186.9,17S257,82,340,83.1v0.1L30,83.2L30,83.2z"
	/>
<g class="st2">
	<path d="M168.4,91.3c0-3.2,0.7-6.1,2.2-8.8c1.5-2.7,3.5-4.8,6.1-6.4c2.6-1.6,5.4-2.3,8.4-2.3c3,0,5.8,0.8,8.4,2.3
		c2.6,1.6,4.6,3.7,6.1,6.4s2.2,5.6,2.2,8.8s-0.7,6.1-2.2,8.8s-3.5,4.8-6,6.4c-2.6,1.6-5.4,2.3-8.4,2.3c-3,0-5.8-0.8-8.4-2.3
		c-2.6-1.6-4.6-3.7-6.1-6.4C169.1,97.4,168.4,94.4,168.4,91.3z M198.8,91.3c0-2.6-0.6-5-1.8-7.2c-1.2-2.2-2.8-4-5-5.3
		c-2.1-1.3-4.5-2-7-2c-2.5,0-4.8,0.6-6.9,1.9c-2.1,1.3-3.8,3-5,5.3c-1.2,2.2-1.8,4.7-1.8,7.4s0.6,5.1,1.8,7.4s2.9,4,5,5.3
		c2.1,1.3,4.4,2,7,2c2.5,0,4.8-0.7,7-2c2.1-1.3,3.8-3.1,5-5.4S198.8,93.9,198.8,91.3z M192.5,94.4c0,2.4-0.7,4.2-2.1,5.4
		c-1.4,1.3-3.3,1.9-5.8,1.9c-2.5,0-4.5-0.8-6-2.5c-1.5-1.7-2.2-3.9-2.2-6.7v-2.7c0-2.7,0.7-4.9,2.2-6.6c1.5-1.7,3.5-2.5,5.9-2.5
		c2.5,0,4.5,0.6,5.9,1.9c1.4,1.3,2,3.1,2,5.4h-3.7c0-1.5-0.4-2.6-1.1-3.2c-0.7-0.6-1.8-1-3.1-1c-1.4,0-2.6,0.5-3.4,1.6
		c-0.8,1.1-1.2,2.5-1.2,4.4v2.8c0,1.8,0.4,3.3,1.2,4.3c0.8,1.1,1.9,1.6,3.4,1.6c1.4,0,2.4-0.3,3.1-1c0.7-0.6,1.1-1.7,1.1-3.2H192.5z
		"/>
</g>
<radialGradient id="glow_gradient_1_" cx="185" cy="71.2299" r="20.5" gradientTransform="matrix(1 0 0 -1 0 112.82)" gradientUnits="userSpaceOnUse">
	<stop  offset="0" style="stop-color:#FFFFFF;stop-opacity:0.2"/>
	<stop  offset="1" style="stop-color:#FFFFFF;stop-opacity:0"/>
</radialGradient>
<rect id="glow_gradient" x="164.5" y="21.1" class="st3" width="41" height="41"/>
</svg>
