<svg xmlns="http://www.w3.org/2000/svg" width="40" height="39" viewBox="0 0 40 39">
  <defs>
    <style>
      .cls-1 {
        fill: #fa820a;
        fill-rule: evenodd;
      }
    </style>
  </defs>
  <path id="SVG-phone" class="cls-1" d="M882.834,3354.68a23.3,23.3,0,0,1-7.173-1.11,3.121,3.121,0,0,0-3.121.64L868,3357.56a25.08,25.08,0,0,1-11.286-11.01l3.337-4.33a3.045,3.045,0,0,0,.78-3.14,21.814,21.814,0,0,1-1.149-7.01,3.122,3.122,0,0,0-3.157-3.08h-7.367a3.122,3.122,0,0,0-3.157,3.08c0,19.82,16.525,35.94,36.834,35.94a3.122,3.122,0,0,0,3.157-3.08v-7.17A3.122,3.122,0,0,0,882.834,3354.68Z" transform="translate(-846 -3329)"/>
</svg>
