<svg xmlns="http://www.w3.org/2000/svg" width="101.94" height="70.03" viewBox="0 0 101.94 70.03">
  <defs>
    <style>
      .cls-1 {
        fill: #83c132;
        fill-rule: evenodd;
      }
    </style>
  </defs>
  <path id="SVG_icon_-_Android" data-name="SVG icon - Android" class="cls-1" d="M1098.58,4110.67h-84.25c-9,0-9.29-7.24-9.29-7.24,0-16.09,7.5-30.82,19.84-39.63l-13.05-13.05a5.791,5.791,0,1,1,8.19-8.19l14.72,14.71a56.726,56.726,0,0,1,21.26-4.51,47.633,47.633,0,0,1,21.55,5.25l15.66-15.66a5.791,5.791,0,1,1,8.19,8.19l-13.69,13.68a48.554,48.554,0,0,1,19.25,39.21S1106.86,4110.67,1098.58,4110.67Zm-62.1-29.77c-4.86,0-8.1,3.23-8.1,8.06s3.24,8.05,8.1,8.05,8.1-3.22,8.1-8.05S1041.34,4080.9,1036.48,4080.9Zm39.04,16.11c4.86,0,8.1-3.22,8.1-8.05s-3.24-8.06-8.1-8.06-8.1,3.23-8.1,8.06S1070.66,4097.01,1075.52,4097.01Z" transform="translate(-1005.03 -4040.66)"/>
</svg>
